<svg id="Capa_2" data-name="Capa 2" xmlns="http://www.w3.org/2000/svg" viewBox="0 0 2783.47 1434.51"><defs><style>.cls-1{fill:#9da5a0;}.cls-2{fill:#13987b;}.cls-3{fill:#17365e;}.cls-4{fill:#16365d;}.cls-5{fill:#595a5c;}</style></defs><polygon class="cls-1" points="1512.8 282.5 1412.17 489.55 1521.28 489.55 1244.81 1001.03 1506.4 992.9 1781.64 485.83 2032.07 483.35 2132.49 282.5 1512.8 282.5"/><path class="cls-1" d="M1183.62,424.86c-30.87,55.82-88.25,159.31-164.51,294.6-131.92,234.08-184.33,321.93-148.77,375.66,13.67,20.66,49.38,50,162.41,40.91,40.46,1.55,99.09,2.89,169.85,1.25,104.08-2.44,136.89,10.83,176-10.1,22.47-12,34.06-26.35,91.81-132.48,63-115.7,113.27-216.51,127.7-245.48,26.72-53.62,49.66-95.52,62.19-120.47-77.28-.82-157.15-.52-234.42-1.34-56.63,106.62-112.09,211.08-168.71,317.7-59.2,17.33-80.85,9-89.76-1.66-27.06-32.26,34.84-119.32,130.67-284.73,58.14-100.35,100.88-182.94,128.82-237.21C1345.87,421.92,1264.62,424.44,1183.62,424.86Z" transform="translate(-268.48 -139.2)"/><path class="cls-2" d="M1161.6,423c-30.87,55.83-89.88,162.25-166.14,297.54-131.92,234.08-184.32,321.93-148.77,375.67,13.66,20.65,49.37,50,162.42,40.91,40.45,1.54,99.08,2.89,169.84,1.24,104.09-2.43,136.9,10.84,176-10.09,22.46-12,34-26.35,91.82-132.48C1510.86,878,1561,777.27,1574.45,750.34c26.71-53.61,48.23-96.54,60.75-121.49l-231.84-2.49q-84.93,159.95-169.86,319.87c-25.86,44.65-80.85,9-89.75-1.66-27.08-32.26,34.84-119.31,130.67-284.73,58.13-100.34,102.24-183.77,130.18-238Z" transform="translate(-268.48 -139.2)"/><polygon class="cls-2" points="1476.65 282.5 1376.01 489.55 1485.12 489.55 1208.64 1001.03 1470.24 992.9 1745.47 485.83 1995.91 483.35 2096.33 282.5 1476.65 282.5"/><polygon class="cls-3" points="1874.3 530.65 1621.7 1001.03 2049.25 1001.03 2114.12 877.61 1874.3 876.63 1903.79 813.72 2071.87 816.66 2125.92 705.6 1966.7 702.66 1997.16 641.77 2237.97 641.77 2296.94 530.65 1874.3 530.65"/><polygon class="cls-3" points="2114.12 1001.03 2539.71 1001.03 2601.64 880.56 2378.51 880.56 2729.41 641.77 2783.47 530.65 2366.72 530.65 2307.75 641.77 2523.99 641.77 2178.99 878.59 2114.12 1001.03"/><path class="cls-4" d="M957.77,548.71A22.73,22.73,0,1,1,935.05,526,22.72,22.72,0,0,1,957.77,548.71Z" transform="translate(-268.48 -139.2)"/><path class="cls-4" d="M1191.86,282.16c-5.68-24.62-14.86-33.93-23.45-37.13-11.78-4.37-19,4.05-30.37-1.24-15.25-7.08-10.19-25.92-26-34.7-12.53-7-19.18,2.9-33.47-4.35-15.06-7.64-14-21.35-27.28-26.65-6.25-2.5-16.37-3.34-32.68,5.62C1003.24,207,979.73,244,953.32,290.91c-49.05,87.07-63.93,130-82.45,127.69-16.6-2.05-21.88-38.66-40.94-112.13-17.55-67.68-35.33-122.51-48.32-160-7.61-4.47-18.55-9.1-30.05-6.53-16.35,3.64-18.29,18.36-34.43,21.41s-21.65-10.09-36.41-6c-14.57,4-13.46,18-27.43,21.54-14.93,3.82-23.35-10.31-38.52-7.23-11.23,2.26-18.86,12.46-23.84,21.7,6.09,31.24,16.39,79.35,32.79,137.39,27.12,95.91,49,141.29,33.9,152.51-13.55,10.09-44.44-16.84-110.18-56.71a1251.67,1251.67,0,0,0-142.07-74.22c-16.71,2.55-26.1,8.41-30.42,16.24-6.74,12.23,2.8,22.17-4.34,35.34-7.37,13.61-21,9.4-28.57,23.52-6.6,12.36,2.15,18.8-4.27,31-7.41,14.07-22.11,11.52-30.89,25.34-6,9.46-5.56,20.85-3.84,29.83,30.9,21.63,76.48,52.07,134.06,85.12,72.18,41.45,112.29,57.75,109.56,76.06-2.57,17.23-40.16,21.85-111.19,39.71-66.55,16.72-120.81,34.6-159.09,48.3C265,787,268,800.14,272.67,807.28c5.54,8.38,12.65,7.25,16.74,16.12,6.47,14-8,24.15-3.1,40.91,3.9,13.2,13.95,10.53,18.6,24.17,5.62,16.55-6.86,27.26-.63,42.78,3.33,8.29,10.16,13.32,14.88,16.11,80.54-7.19,142.26-24,184.38-38.45,49-16.78,85.49-35.06,96.44-22.29,9.95,11.61-7.9,41.09-34.85,87.33-23,39.49-55.44,96-94.1,166.2,4.08,22.31,12,30,18.6,32.86,12.67,5.38,23.73-5.85,34.26.75,11.15,7,4.26,23,15.24,30.87,12.67,9,28.85-7.35,42.6,1.35,12.55,7.94,6.3,26.24,18.66,35.43,10.09,7.51,25.9,4,39.57-1.41l118.71-193.45,8-11.57,316.23-547.58c-1.23-2.69-2.48-5.37-3.72-8.06ZM857.61,464.49c4.56-18.56,23.66-32.17,45.43-30.55.52-.33,10.65-6.86,10.26-18a19.56,19.56,0,0,0-4.48-11.56c48.79-87.52,83.68-150.94,93-172.62,2-4.53,7.74-18.65,21.82-26.32a44.22,44.22,0,0,1,19.25-5.13c3.53,2.73,8.13,7.21,10.29,13.82,4.81,14.69-5.69,30-10.29,36.88-24.08,35.89-42.07,75.55-64.81,112.3-7.27,11.76-18,29.54-30.17,52A37.81,37.81,0,0,0,920.07,441c18.64,19.84,16.23,49.34-.34,62.89-12.55,10.26-32.54,10.84-48.78.64C859.44,494,854.14,478.59,857.61,464.49ZM644.19,329.8C631.35,286.61,621.13,245.52,613,207A26.49,26.49,0,0,1,625,197.81a27,27,0,0,1,19.86.72c13.71,37.63,27.09,77.63,39.74,119.92Q700.76,372.36,713,422.76c-3.57,9.16-7,22.12-.84,31,6.76,9.79,19,5.71,28.39,16.33,9.05,10.19,9.18,26.74,4.78,38.7-.79,2.12-8.89,23.08-29.62,26.58-16,2.71-31.41-5.8-39-18.45-5.85-9.69-8.16-23.54-2.85-34.06,4.56-9,11.85-9.92,14.19-18.45,2.29-8.29-2-16.71-5.93-22.45C669,407.43,656.13,370,644.19,329.8ZM396.4,376.41c13.14-10.91,42.87,1.42,152.57,66.7,26.06,15.53,47.82,28.77,63.54,38.44-1,3.14-2.07,8.51.32,13.37,6.07,12.37,27.69,6.92,39,19.16,4.3,4.64,8.76,13.6,5.68,32.63,16.62-10.3,37.39-8.41,49.79,3.58,16.62,16.1,13.45,45.76-4.37,59.57-13.18,10.23-32.23,10.1-45.44,1.58a40.54,40.54,0,0,1-17.94-29.51c-1.41-15.36,8.38-22,5.6-36.07-1.86-9.52-8.25-16.29-13.18-20.43-6-5.1-15.53-11.5-28.39-13.48a47.66,47.66,0,0,0-5.68-.56c-9.06-.5-23.9-4-49.28-17.18-37-19.41-75.36-41.51-114.63-66.71q-23.13-14.83-44.72-29.8C389.13,385.06,392.9,379.32,396.4,376.41ZM363,431.05a24.8,24.8,0,0,1,15.7-6.71q63.19,34.37,128.35,72.7,35.45,20.9,69.55,41.87A31.61,31.61,0,0,0,583,555.23c9.72,12.17,23.47,7.65,38.31,19.16,9.07,7,4.09,8.82,17.63,24,12.06,13.48,24.84,21.94,32.75,27.1a194.6,194.6,0,0,0,18.46,10.65c17.61-13.58,41.71-13.23,57.47,0,13.68,11.47,21.86,33.45,12.06,50.38-11.15,19.25-40.41,23.06-58.19,9.94-11.83-8.75-17.66-24.35-15.6-40.46l-61-44.7c-1.36-3.77-9.48-25.11-31.92-34.06a54.6,54.6,0,0,0-27.8-3.18,1034.17,1034.17,0,0,1-111.09-58.58,869.85,869.85,0,0,1-98.44-69.63A24.76,24.76,0,0,1,363,431.05ZM526.25,621.93c-11.37-1.32-18.33-5.8-28.38-11.35-21.83-12.07-16.46-6.15-51.8-24.12-19.31-9.83-41.93-21.34-69.54-39.75A556.71,556.71,0,0,1,329,511.23c-.95-1.53-8.18-13.71-3.56-22,5.06-9,23.85-12.67,42.75-1,36.47,23.43,66.67,40.62,87.82,52.13,20.08,10.93,39.31,20.72,64.58,38.32A484.92,484.92,0,0,1,563.16,612c21.42-10.47,45.52-7.32,59.6,7.11,8.75,8.95,16.91,25.59,10.64,41.86-7.24,18.86-30.1,27.52-46.82,22.71-17.43-5-25.44-23.79-27-27.68-6.33-16-.67-26.9-8.51-32.63C545.19,619,539.67,623.5,526.25,621.93ZM288.09,786.05c-.13-2.92,1.46-9.55,31.53-22.47a297.5,297.5,0,0,1,51.15-16.74c17.42-4,42.3-10.24,73-19.53,30.48-9.07,55.19-11.57,72.53-12.09,28.37-.85,43.7-.46,43.7-.46,26.81.67,34.84,2.67,47-2.79,12.6-5.68,12.79-11.83,25.1-14.89,4.39-1.07,19.17-4,33,5.13,3,1.95,16.16,11.17,17.66,27.9,1.45,16-8.59,31.36-22.32,37.18-16.75,7.12-33.21-2.36-37.19-4.64-15-8.65-12.36-17.92-27.38-27.7-1.06-.69-21.92-13.86-43.28-7.4-11.7,3.53-12.19,9.5-26,18.37s-21.52,8-50.67,15.33c-12.09,3-26.7,7.62-55.79,17.2-33.88,11.17-39.43,14.48-55.77,18a210.69,210.69,0,0,1-59.19,4C299,798,288.36,793,288.09,786.05Zm17.12,70.51c-4.81-7.4-4.31-17.61,1.39-25.57,27.92-6.55,51.12-12.84,68.21-17.73,24.29-7,50.67-15.18,92.42-26.39,19.73-5.28,40.27-10.53,67.66-9.35a184.62,184.62,0,0,1,24.94,2.8,83.06,83.06,0,0,1,13.64-7.45,84.43,84.43,0,0,1,26-6.51,82.72,82.72,0,0,0,22.31,7.44,83.8,83.8,0,0,0,23.24.94q8.79-2,18.15-4.65c9.25-2.61,17.94-5.45,26-8.37a60.58,60.58,0,0,1,33-38.59A40.74,40.74,0,0,1,768.74,751c5.69,11.76,3.86,25.65-4.54,35-11.22,12.47-27.91,9.82-28.93,9.63a42.53,42.53,0,0,1-20-1.85,43.63,43.63,0,0,1-21.85-17.2,109.55,109.55,0,0,1-57.82,18.59c-4.34-2.81-23.49-14.55-49.12-10.23a70.14,70.14,0,0,0-41.38,23.71l-225,57.19C318.53,865.6,310.13,864.09,305.21,856.56Zm285.46-2.47a28.67,28.67,0,0,0-14.87.14c-13,3.74-18.29,15.85-19.06,17.67L333.11,929.55a41.21,41.21,0,0,1-10.23-37.65l194.81-48.83c14.09-6.74,24.52-7.57,31.61-7a132.31,132.31,0,0,0,20.92.93c4.51-.18,8.23-.59,10.69-.93,3.71-25.45,25.51-41.89,45.53-39.26,14.36,1.87,26.88,13.42,32.12,29,3.5,15.16-.71,30.61-11.17,39.06C632.57,876.89,606.16,874,590.67,854.09Zm-68.22,300.72a25.57,25.57,0,0,1-20.16-2.73c-9.8-6.1-11.32-16.6-11.49-18L603.7,940.51a29.15,29.15,0,0,0,13.09-8.17c8.39-9.43,5.27-20.19,9.27-29.45,3.44-8,13.12-17.08,40.89-21.26-3.11-24.49,10.54-45.35,28.35-49.63,16-3.84,30,7,32.18,8.73,17,16.56,15.77,43.5,0,57.25-13.86,12.09-36.17,11.8-51.26-1.63-3,.71-28,6.92-38.69,31.08a54.55,54.55,0,0,0-2.72,35ZM806.92,952.68c-1.73,18.73-17.56,34.47-38,36.5-1.84-.23-10.9-1.19-18.25,4.93-7.58,6.33-10.26,17.62-6.41,28.11q-55,98.37-110,196.76c-.72.33-12.33,5.53-23.18-1.48-9.92-6.4-10.78-17.56-10.85-18.73l109.48-197.26c.9,0,15.71.4,23.67-11.34,6.63-9.77,5.61-23.69-3-33.54,0-1.18-.84-24.93,18.74-38,16.43-10.94,34.16-5.66,36.49-4.93C800,921.9,808.36,937.24,806.92,952.68Zm11.87-111.31c-9.95,14.78-29,21.47-46.76,16.12a144.66,144.66,0,0,1-60.47,87.41c-1.08.52-17.49,8.74-19.2,26a31.57,31.57,0,0,0,4.94,19.82L585.1,1186c-.6.37-13.65,8.13-26.66,1.23-9.81-5.2-12.56-15-13-16.73q57.2-100.11,114.35-200.23a33.62,33.62,0,0,0,28.23-31,186.21,186.21,0,0,0,71.29-89.26,41.15,41.15,0,0,1,53.31-62C827.38,802.38,829.78,825.08,818.79,841.37ZM786.68,642.52c-15-1.35-28.1-9.91-34.06-22.71-7.84-16.88-2-38.62,14.91-51.1q-7.11-39.37-14.2-78.77A63.42,63.42,0,0,0,743,426.8C729.16,390.72,715.55,351.4,703,309c-12.85-43.22-23.06-84.33-31.23-122.77A26.42,26.42,0,0,1,683.79,177a27.1,27.1,0,0,1,19.87.71c13.7,37.64,27.08,77.63,39.74,119.92Q759.54,351.56,771.77,402c-3.26,5-7.12,12.67-7.08,22,0,12,6.47,17.66,9.92,29.8,4.16,14.59.29,25.37-1.41,36.19-2.48,15.76-1.6,39.27,14.19,72.39,21.14,1.25,37.79,18.55,38.32,39C826.26,622.85,808.91,641.57,786.68,642.52Zm15.6-91.14c-18.09-6.47-28.84-24.91-25.67-43,2.89-16.46,16.75-29.43,34-31.44,3.41-11.51,6.58-28.63,1.93-47.49-4-16.21-12-26.74-15.4-31.45-19.52-27.32-19.25-51.12-42.39-144.94-4.77-19.3-12.22-48.4-22.43-84.17,6.63-4,19.53-10.61,30.17-5.77,11.16,5.07,14.11,20.12,15.5,26.66,14.22,67.22,59.67,165.66,49.31,207.58a59.67,59.67,0,0,0-1.92,10.91c-1.45,18.33,6.65,26.56,7.06,41.07.18,6.32-1.07,15.29-7.7,26.31a40,40,0,0,1,24.38,36.24c.09,1.88.64,19.76-14.12,31.78C820.87,555.2,804.33,551.83,802.28,551.38Zm84.07,86c-12.86,4.57-27.63,1-37.86-9A41.14,41.14,0,0,1,840.37,580c8.76-16.79,28.53-25.39,47.27-20.3,9.62-26.14,22.56-42.48,32.73-52.62,20.7-20.66,43.26-29,48.77-52.63a48.77,48.77,0,0,0,0-21.18c49.85-94.56,86.77-163.46,96.27-181.6,1.91-3.69,6.86-13.21,16.65-16.34,7.19-2.29,14.21-.26,18.64,1.57,5.23,2.89,12.4,8.05,14.12,16.05,1.77,8.21-3,15.59-4.73,18.22-10,15.65-51,83.85-107.58,177.51-5.25-.8-12.46-.95-18,3.21-7.06,5.31-6.66,14.18-8.66,22.21-5.17,20.8-23.76,26.12-44,45.81-10,9.75-23,25.69-33.12,51.63a28.08,28.08,0,0,1,10.64,14.9,27.11,27.11,0,0,1,.66,11.76C911.86,615.72,901.77,631.9,886.35,637.37Zm158.72-152.44c-9.06,7.56-7.16,18.89-11.78,29.14-3.9,8.63-13.46,18.78-38.51,25.06A47.36,47.36,0,0,1,984,584.34c-13,9.37-30.13,10.49-43.66,2.88-18.19-10.23-20.11-30.72-20.23-32.36,0-16.91,10-32.1,25.18-38.31a41.05,41.05,0,0,1,40.67,5.87c2.72,0,19.22-.43,31.24-13.93,14.64-16.43,9.51-37.47,9.07-39.14,1.77-3.76,5.48-11.66,10-21.66,0,0,60.14-132.38,91.91-167.9,4.24-4.74,10.19-10,18.54-11.82a31.88,31.88,0,0,1,16.13.87,30.17,30.17,0,0,1,7,10.51c7.14,18.47-8.2,38.5-31.22,72.31-31.26,45.95-45.93,70-49,75-13.31,22.05-22.77,40.75-28.51,52.68C1056.64,479.55,1050.27,480.58,1045.07,484.93Z" transform="translate(-268.48 -139.2)"/><path class="cls-4" d="M873.13,594.16a22.73,22.73,0,1,1-22.73-22.73A22.73,22.73,0,0,1,873.13,594.16Z" transform="translate(-268.48 -139.2)"/><path class="cls-4" d="M893.49,463.77a22.72,22.72,0,1,1-22.72-22.72A22.73,22.73,0,0,1,893.49,463.77Z" transform="translate(-268.48 -139.2)"/><path class="cls-4" d="M808.67,509.07A21.58,21.58,0,1,1,787.1,487.5,21.57,21.57,0,0,1,808.67,509.07Z" transform="translate(-268.48 -139.2)"/><path class="cls-4" d="M782.6,597.16a22.73,22.73,0,1,1-22.73-22.73A22.72,22.72,0,0,1,782.6,597.16Z" transform="translate(-268.48 -139.2)"/><ellipse class="cls-4" cx="411.47" cy="350.46" rx="22.72" ry="22.72"/><path class="cls-4" d="M674.86,571.43a22.72,22.72,0,1,1-22.72-22.72A22.73,22.73,0,0,1,674.86,571.43Z" transform="translate(-268.48 -139.2)"/><path class="cls-4" d="M717.32,660.18a22.72,22.72,0,1,1-22.72-22.71A22.72,22.72,0,0,1,717.32,660.18Z" transform="translate(-268.48 -139.2)"/><path class="cls-4" d="M590.41,639.61a22.72,22.72,0,1,1-22.72-22.73A22.72,22.72,0,0,1,590.41,639.61Z" transform="translate(-268.48 -139.2)"/><path class="cls-4" d="M669.7,733.12a22.31,22.31,0,1,1-22.31-22.3A22.3,22.3,0,0,1,669.7,733.12Z" transform="translate(-268.48 -139.2)"/><path class="cls-4" d="M755.71,761.48a22.31,22.31,0,1,1-22.3-22.31A22.31,22.31,0,0,1,755.71,761.48Z" transform="translate(-268.48 -139.2)"/><path class="cls-4" d="M645.84,841.57a21.9,21.9,0,1,1-21.9-21.9A21.9,21.9,0,0,1,645.84,841.57Z" transform="translate(-268.48 -139.2)"/><path class="cls-4" d="M723,877.61a21.9,21.9,0,1,1-21.9-21.9A21.9,21.9,0,0,1,723,877.61Z" transform="translate(-268.48 -139.2)"/><path class="cls-4" d="M807.08,820.53a22.31,22.31,0,1,1-22.3-22.31A22.29,22.29,0,0,1,807.08,820.53Z" transform="translate(-268.48 -139.2)"/><path class="cls-4" d="M790.08,953.84a21.9,21.9,0,1,1-21.91-21.9A21.9,21.9,0,0,1,790.08,953.84Z" transform="translate(-268.48 -139.2)"/><path class="cls-5" d="M985.59,1465.78,948.49,1558h28c2.38,0,3.95-.22,4.69-.66s1.49-1.61,2.23-3.5h1.3L981.13,1573H927.82l37.28-92.88H941.27a7.09,7.09,0,0,0-3.91.78,10.54,10.54,0,0,0-2.49,3.77l-1.35-.63,3.46-18.21Z" transform="translate(-268.48 -139.2)"/><path class="cls-5" d="M1051.31,1545.86h-30.65l-4.58,13.67a22.88,22.88,0,0,0-1.46,7,4.86,4.86,0,0,0,.79,3.14,5,5,0,0,0,3,1.34v2h-23.6v-2q3.17-.32,4.43-1.61c.84-.86,1.77-2.79,2.79-5.77l34.23-102.54L1071.39,1563a25.77,25.77,0,0,0,2.85,6.36,4.61,4.61,0,0,0,3.55,1.65v2h-24.07v-2a5.2,5.2,0,0,0,3.17-1.14,4.27,4.27,0,0,0,.88-3,19.14,19.14,0,0,0-1.29-6Zm-5-14.52L1036,1500.8l-10.45,30.54Z" transform="translate(-268.48 -139.2)"/><path class="cls-5" d="M1108.87,1549.24v12.25c0,3.72.34,6.2,1,7.46s2.1,1.93,4.25,2v2h-23.42v-2q3.23-.16,4.26-2c.68-1.26,1-3.74,1-7.46v-84.25q0-5.57-1-7.46t-4.26-2v-2h31.59a25.38,25.38,0,0,1,9.27,1.41,17.3,17.3,0,0,1,6.58,5q6.57,7.53,6.57,19.39a30.38,30.38,0,0,1-1.7,10.68,42.33,42.33,0,0,1-6.22,10.44Zm0-68.54v45.38l18.73-23.87a17.25,17.25,0,0,0,4-10.6q0-10.92-9.33-10.91Z" transform="translate(-268.48 -139.2)"/><path class="cls-5" d="M1198.21,1545.86h-30.64l-4.58,13.67a22.94,22.94,0,0,0-1.47,7,4.92,4.92,0,0,0,.79,3.14,5,5,0,0,0,3,1.34v2h-23.6v-2q3.16-.32,4.43-1.61c.84-.86,1.77-2.79,2.79-5.77l34.23-102.54,35.1,101.91a26.56,26.56,0,0,0,2.85,6.36,4.63,4.63,0,0,0,3.55,1.65v2h-24.07v-2a5.15,5.15,0,0,0,3.17-1.14,4.23,4.23,0,0,0,.88-3,19.14,19.14,0,0,0-1.29-6Zm-5-14.52-10.28-30.54-10.45,30.54Z" transform="translate(-268.48 -139.2)"/><path class="cls-5" d="M1261,1480.77v80.72c0,3.72.34,6.2,1,7.46s2.1,1.93,4.26,2v2h-23.37v-2q3.22-.16,4.26-2c.68-1.26,1-3.74,1-7.46v-80.72h-14.38a9.21,9.21,0,0,0-5,1.06,7.75,7.75,0,0,0-2.55,4.21l-1.41-.71,3.7-21.67h1.41q.69,2.11,4.34,2.12h40.8a8.39,8.39,0,0,0,3.09-.36,2.82,2.82,0,0,0,1.2-1.76h1.41l3.46,22.38-1.35.7q-1.53-4.15-2.76-5.06c-.82-.6-2.58-.91-5.28-.91Z" transform="translate(-268.48 -139.2)"/><path class="cls-5" d="M1340.83,1545.86h-30.64l-4.58,13.67a22.94,22.94,0,0,0-1.47,7,4.86,4.86,0,0,0,.79,3.14,5,5,0,0,0,3,1.34v2h-23.61v-2c2.12-.21,3.59-.75,4.44-1.61s1.77-2.79,2.78-5.77l34.23-102.54L1360.91,1563a26.56,26.56,0,0,0,2.85,6.36,4.63,4.63,0,0,0,3.55,1.65v2h-24.07v-2a5.17,5.17,0,0,0,3.17-1.14,4.23,4.23,0,0,0,.88-3,19.14,19.14,0,0,0-1.29-6Zm-5-14.52-10.27-30.54-10.45,30.54Z" transform="translate(-268.48 -139.2)"/><path class="cls-5" d="M1670.14,1286.08v79.07q0,5.46,1.13,7.3t4.67,2v1.93h-25.65v-1.93c2.37-.1,3.92-.77,4.68-2s1.12-3.66,1.12-7.3v-79.07h-15.78c-2.54,0-4.38.34-5.51,1a7.55,7.55,0,0,0-2.81,4.11l-1.54-.69,4.06-21.23h1.54q.78,2.09,4.77,2.08h44.79a10.35,10.35,0,0,0,3.38-.35,2.79,2.79,0,0,0,1.32-1.73h1.55l3.8,21.92-1.48.69c-1.12-2.71-2.13-4.37-3-5s-2.84-.88-5.8-.88Z" transform="translate(-268.48 -139.2)"/><path class="cls-5" d="M1715.22,1324.92a47.17,47.17,0,0,0,5.67,21.23,34.59,34.59,0,0,0,14.69,14.38,29,29,0,0,0,13,3,29.8,29.8,0,0,0,16.08-4.35,22.13,22.13,0,0,0,9.57-11.65l1.42.54-4.64,23.61a42.89,42.89,0,0,1-23.46,6.54,41.72,41.72,0,0,1-30.16-12.3,53.47,53.47,0,0,1-13.08-20.85,62.91,62.91,0,0,1-3.48-20.84,62.27,62.27,0,0,1,6.44-28q6.39-12.84,16.73-19.8a40.14,40.14,0,0,1,22.91-7,37.49,37.49,0,0,1,7.5.62,63.11,63.11,0,0,1,8.61,2.77,5.72,5.72,0,0,0,2.12.46c1.16,0,1.87-.69,2.13-2.08h1.48l5.29,28.46-1.49.77a28,28,0,0,0-9.6-12.15,24.33,24.33,0,0,0-14.11-4.15,29.38,29.38,0,0,0-19.33,6.88q-8.33,6.89-12.25,19.34h23.39c3.53,0,5.8-.28,6.84-.84s2-2,2.83-4.46H1752l-5.09,26.3h-1.68q.06-.93.06-1.38c0-2-.39-3.29-1.19-4s-2.29-1.08-4.48-1.08Z" transform="translate(-268.48 -139.2)"/><path class="cls-5" d="M1856.64,1370.84a39,39,0,0,1-23,7.38,43.52,43.52,0,0,1-23.26-6.77q-13.61-8.39-20.11-24.53a62.92,62.92,0,0,1,1.61-50.46q7.41-15.3,21.2-22.38a37.51,37.51,0,0,1,17.53-4.54,35,35,0,0,1,13.6,2.69c3.65,1.49,5.77,2.23,6.38,2.23,1.24,0,2.1-.87,2.57-2.61h1.36l5.54,28.69h-1.35q-7.61-16.62-25-16.62-13.79,0-23.45,11.39a40.81,40.81,0,0,0-7.35,13,45.86,45.86,0,0,0,2.51,36.45,34.85,34.85,0,0,0,15,15.54,31,31,0,0,0,14.63,3.62,25.1,25.1,0,0,0,14.4-4q5.89-4,10.28-12.77l1.35.54Z" transform="translate(-268.48 -139.2)"/><path class="cls-5" d="M1937.73,1380.84l-46.08-78.76v63.07q0,5.46,1.13,7.3t4.67,2v1.93H1873v-1.93q3.54-.15,4.67-2t1.13-7.3v-82.53q0-5.46-1.13-7.31t-4.67-2v-1.92h18l33.89,57.91v-46.68q0-5.46-1.12-7.31t-4.68-2v-1.92h24.43v1.92c-2.37.1-3.92.77-4.68,2s-1.12,3.67-1.12,7.31Z" transform="translate(-268.48 -139.2)"/><path class="cls-5" d="M2001.47,1269.54a37.41,37.41,0,0,1,20.56,6.16q12.88,8.22,19.46,23.45a63.3,63.3,0,0,1,5,25.54,59.37,59.37,0,0,1-5,23.69q-6.77,15.91-20,24a38.39,38.39,0,0,1-20.37,5.84,39.42,39.42,0,0,1-22.29-6.92q-12.64-8.38-18.89-23.61a62.62,62.62,0,0,1-4.57-23.85q0-22.46,13.53-38.61Q1982,1269.71,2001.47,1269.54Zm-.13,15.38q-14.88,0-24,13.85a44.5,44.5,0,0,0-7.34,25,45.28,45.28,0,0,0,6.12,23.15q9.21,15.91,24.62,15.92a27.17,27.17,0,0,0,18.23-7.08,36.82,36.82,0,0,0,10.25-15.53,45.47,45.47,0,0,0,2.83-15.69q0-18.07-10.63-30.08A26.86,26.86,0,0,0,2001.34,1284.92Z" transform="translate(-268.48 -139.2)"/><path class="cls-5" d="M2078.42,1361.53h24.87q6.57,0,8.22-1c1.09-.66,2.33-2.66,3.7-6l1.42.54-3.86,21.31h-54.2v-1.93q3.54-.15,4.67-2t1.13-7.3v-82.53q0-5.46-1.13-7.31t-4.67-2v-1.92h25.65v1.92c-2.37.1-3.92.77-4.67,2s-1.13,3.67-1.13,7.31Z" transform="translate(-268.48 -139.2)"/><path class="cls-5" d="M2168.51,1269.54a37.35,37.35,0,0,1,20.55,6.16q12.9,8.22,19.46,23.45a63.14,63.14,0,0,1,5,25.54,59.37,59.37,0,0,1-5,23.69q-6.77,15.91-20,24a38.35,38.35,0,0,1-20.36,5.84,39.48,39.48,0,0,1-22.3-6.92q-12.63-8.38-18.88-23.61a62.62,62.62,0,0,1-4.57-23.85q0-22.46,13.53-38.61Q2149.05,1269.71,2168.51,1269.54Zm-.13,15.38q-14.9,0-24,13.85a44.42,44.42,0,0,0-7.34,25,45.28,45.28,0,0,0,6.12,23.15q9.21,15.91,24.61,15.92a27.2,27.2,0,0,0,18.24-7.08,36.82,36.82,0,0,0,10.25-15.53,45.47,45.47,0,0,0,2.83-15.69q0-18.07-10.63-30.08A26.86,26.86,0,0,0,2168.38,1284.92Zm1.16-40.91h16.88v1.23a3.54,3.54,0,0,0-2,.61,18.9,18.9,0,0,0-2.42,2.93L2170.89,1264h-7.22Z" transform="translate(-268.48 -139.2)"/><path class="cls-5" d="M2299.78,1368q-13.79,10.23-28.87,10.23-18.36,0-31.45-15.07a56.05,56.05,0,0,1-11.4-21.39,62,62,0,0,1-2.58-17.76,63.29,63.29,0,0,1,5.8-26.62q7-15.3,20-22.68a38,38,0,0,1,31.51-3.08,35.12,35.12,0,0,0,6.64,1.77q1.94,0,2.58-2.31h1.61l4.64,27.84-1.42.7a32.52,32.52,0,0,0-6.38-8.85,25.24,25.24,0,0,0-17.85-6.77q-12.89,0-22.3,10.85a41.56,41.56,0,0,0-7.73,13.69,48,48,0,0,0-2.64,15.84,43.49,43.49,0,0,0,8.38,26.38q9.33,12.93,22.62,12.92a26.07,26.07,0,0,0,14.75-4.23v-36.91c0-3.64-.38-6.08-1.16-7.31s-2.34-1.9-4.7-2v-1.85h25.71v1.85q-3.48.15-4.64,2t-1.16,7.31Z" transform="translate(-268.48 -139.2)"/><path class="cls-5" d="M2337.56,1282.62v82.53q0,5.46,1.12,7.3c.76,1.23,2.31,1.9,4.68,2v1.93h-25.65v-1.93q3.54-.15,4.67-2t1.13-7.3v-82.53q0-5.46-1.13-7.31t-4.67-2v-1.92h25.65v1.92c-2.37.1-3.92.77-4.68,2S2337.56,1279,2337.56,1282.62Z" transform="translate(-268.48 -139.2)"/><path class="cls-5" d="M2426.36,1370.84a39,39,0,0,1-23,7.38,43.58,43.58,0,0,1-23.27-6.77q-13.59-8.39-20.1-24.53a62.92,62.92,0,0,1,1.61-50.46q7.41-15.3,21.2-22.38a37.51,37.51,0,0,1,17.53-4.54,34.94,34.94,0,0,1,13.59,2.69c3.66,1.49,5.78,2.23,6.38,2.23q1.88,0,2.58-2.61h1.35l5.55,28.69h-1.36q-7.61-16.62-25-16.62-13.78,0-23.46,11.39a41,41,0,0,0-7.34,13,45.86,45.86,0,0,0,2.51,36.45,34.8,34.8,0,0,0,15,15.54,31,31,0,0,0,14.62,3.62,25.13,25.13,0,0,0,14.41-4q5.9-4,10.27-12.77l1.36.54Z" transform="translate(-268.48 -139.2)"/><path class="cls-5" d="M2497.71,1349.84h-33.64l-5,13.38a20.53,20.53,0,0,0-1.61,6.85,4.4,4.4,0,0,0,.87,3.07,5.78,5.78,0,0,0,3.32,1.31v1.93h-25.9v-1.93c2.32-.2,3.94-.73,4.86-1.57s2-2.74,3.06-5.66l37.57-100.45,38.54,99.84a24.89,24.89,0,0,0,3.12,6.23,5.31,5.31,0,0,0,3.9,1.61v1.93h-26.42v-1.93a6,6,0,0,0,3.48-1.11,3.85,3.85,0,0,0,1-3,17.14,17.14,0,0,0-1.42-5.85Zm-5.54-14.23-11.28-29.92-11.47,29.92Z" transform="translate(-268.48 -139.2)"/><path class="cls-5" d="M865,1283.65v52.65q0,14.39-1.64,19.8-3.6,12.14-13.57,17.78a26.42,26.42,0,0,1-13.25,3.39q-14.32,0-22.27-12.58a31.54,31.54,0,0,1-4.51-11,93.13,93.13,0,0,1-1.17-17.06v-52.95q0-5.34-1.1-7.15t-4.58-2v-1.88H828v1.88c-2.31.1-3.84.75-4.57,2s-1.11,3.59-1.11,7.15V1341c0,6.77,1,11.8,2.91,15.06q3.84,6.48,12,6.48t12.24-6.48c2-3.21,3-8.14,3-14.76v-57.62q0-5.34-1.1-7.15c-.74-1.21-2.26-1.86-4.58-2v-1.88h23.92v1.88c-2.32.1-3.84.75-4.58,2S865,1280.09,865,1283.65Z" transform="translate(-268.48 -139.2)"/><path class="cls-5" d="M947.34,1379.83l-45.11-77.12v61.75c0,3.57.37,6,1.1,7.16s2.26,1.86,4.58,2v1.88H884v-1.88c2.32-.1,3.84-.76,4.58-2s1.1-3.59,1.1-7.16v-80.81q0-5.34-1.1-7.15c-.74-1.21-2.26-1.86-4.58-2v-1.88H901.6l33.19,56.71v-45.72q0-5.34-1.11-7.15c-.73-1.21-2.26-1.86-4.57-2v-1.88H953v1.88c-2.31.1-3.84.75-4.57,2s-1.11,3.59-1.11,7.15Z" transform="translate(-268.48 -139.2)"/><path class="cls-5" d="M986.42,1283.65v80.81c0,3.57.37,6,1.11,7.16s2.26,1.86,4.57,2v1.88H967v-1.88c2.31-.1,3.84-.76,4.57-2s1.11-3.59,1.11-7.16v-80.81q0-5.34-1.11-7.15c-.73-1.21-2.26-1.86-4.57-2v-1.88H992.1v1.88c-2.31.1-3.84.75-4.57,2S986.42,1280.09,986.42,1283.65Z" transform="translate(-268.48 -139.2)"/><path class="cls-5" d="M1041.22,1377.94l-32.05-95q-1.77-5.26-2.93-6.74a5,5,0,0,0-3.88-1.62v-1.88H1027v1.88c-2.7,0-4,1.16-4,3.32a21.24,21.24,0,0,0,1.32,5.87l17.92,52.64,18.49-52.79a20.18,20.18,0,0,0,1.39-5.95q0-2.94-3.53-3.09v-1.88h22.59v1.88c-2.07.25-3.37.72-3.92,1.39s-1.47,3-2.77,7Z" transform="translate(-268.48 -139.2)"/><path class="cls-5" d="M1096,1325.08a46.1,46.1,0,0,0,5.55,20.78,33.9,33.9,0,0,0,14.39,14.09,28.4,28.4,0,0,0,12.74,2.93,29.27,29.27,0,0,0,15.75-4.25,21.7,21.7,0,0,0,9.37-11.41l1.39.52-4.55,23.13a42,42,0,0,1-23,6.4,40.83,40.83,0,0,1-29.53-12,52.38,52.38,0,0,1-12.81-20.41,62.75,62.75,0,0,1,2.9-47.83q6.24-12.57,16.37-19.39a39.33,39.33,0,0,1,22.43-6.81,37.11,37.11,0,0,1,7.36.6,61.39,61.39,0,0,1,8.42,2.71,5.71,5.71,0,0,0,2.08.45c1.14,0,1.83-.68,2.08-2h1.45l5.18,27.86-1.45.76a27.51,27.51,0,0,0-9.4-11.9,23.86,23.86,0,0,0-13.82-4.07,28.79,28.79,0,0,0-18.93,6.74q-8.14,6.74-12,18.94h22.9c3.45,0,5.68-.27,6.69-.83s1.94-2,2.78-4.36H1132l-5,25.75h-1.64c.05-.6.07-1.05.07-1.35,0-1.91-.39-3.22-1.17-3.92s-2.24-1.05-4.39-1.05Z" transform="translate(-268.48 -139.2)"/><path class="cls-5" d="M1209.07,1326.88l19.31,39.54c1.51,3.12,2.64,5,3.37,5.73a7.5,7.5,0,0,0,4.14,1.43v1.88h-25.24v-1.88q3.35,0,3.34-3a13.3,13.3,0,0,0-1.64-4.52L1199,1338.93l-12.18,14.16v11.37c0,3.57.37,6,1.11,7.16s2.26,1.86,4.57,2v1.88h-25.11v-1.88c2.31-.1,3.84-.76,4.58-2s1.1-3.59,1.1-7.16v-80.81q0-5.34-1.1-7.15t-4.58-2v-1.88h31.23q7.83,0,11.71,1.24a19.08,19.08,0,0,1,7.48,4.78q7.24,7.23,7.25,18.53a27.15,27.15,0,0,1-4.6,15.51q-2.28,3.46-9.59,12.13Zm-22.28,4.6,19.75-23.35q4.37-5,4.36-10.17a11.73,11.73,0,0,0-2.84-8.13,6.8,6.8,0,0,0-3.22-2.22,19.13,19.13,0,0,0-5.36-.57h-12.69Z" transform="translate(-268.48 -139.2)"/><path class="cls-5" d="M1293,1294.57l-1.52.46a22.12,22.12,0,0,0-18.3-10.62,13.26,13.26,0,0,0-9.4,3.46,11.52,11.52,0,0,0-3.72,8.81,11.86,11.86,0,0,0,2.55,7.69q2.56,3.15,10.95,9,12,8.28,16.09,13.4,6.63,8.3,6.63,20.26,0,12.51-6.82,21.16-7.18,9.12-18.17,9.12a36.57,36.57,0,0,1-12.68-2.34,20.46,20.46,0,0,0-5.05-1.35,3.88,3.88,0,0,0-3.53,2.41h-1.45l-4.11-25.23h1.58a21.47,21.47,0,0,0,7.38,8.13,26,26,0,0,0,14.52,4.59q6.93,0,10.79-4.89a16.2,16.2,0,0,0,3.34-10.39,17,17,0,0,0-5.43-12.88,128.46,128.46,0,0,0-12.93-9.87q-10.6-7.38-14.14-13.86a28.58,28.58,0,0,1-3.59-14.08q0-13.17,8.77-21a22,22,0,0,1,15.14-5.65,34.48,34.48,0,0,1,13.06,3.09,6.18,6.18,0,0,0,2.34.6c1.05,0,2-.75,2.84-2.26h1.58Z" transform="translate(-268.48 -139.2)"/><path class="cls-5" d="M1329.5,1283.65v80.81c0,3.57.36,6,1.1,7.16s2.26,1.86,4.57,2v1.88h-25.11v-1.88c2.31-.1,3.84-.76,4.58-2s1.1-3.59,1.1-7.16v-80.81q0-5.34-1.1-7.15t-4.58-2v-1.88h25.11v1.88q-3.47.15-4.57,2C1329.86,1277.71,1329.5,1280.09,1329.5,1283.65Z" transform="translate(-268.48 -139.2)"/><path class="cls-5" d="M1355.4,1364.46v-80.81c0-3.56-.36-5.94-1.1-7.15s-2.26-1.86-4.57-2v-1.88H1377q10.49,0,16.47,1.73,14.44,4.29,23.54,18.23a56.65,56.65,0,0,1,9.15,31.55,58.74,58.74,0,0,1-5.3,24.55,51.52,51.52,0,0,1-10.1,14.69,39,39,0,0,1-14,9.3q-7.55,2.82-18.65,2.82l-12.24-.07h-16.15v-1.88c2.31-.1,3.83-.76,4.57-2S1355.4,1368,1355.4,1364.46Zm13.76-3h6.75q9.35,0,13.88-1.66,11.87-4.44,18-17.24a42.17,42.17,0,0,0,4.1-18.38,41.63,41.63,0,0,0-5.49-21.09q-9.53-16.49-28.46-16.49h-8.83Z" transform="translate(-268.48 -139.2)"/><path class="cls-5" d="M1486.8,1349.48h-32.94l-4.92,13.1a20,20,0,0,0-1.58,6.7,4.34,4.34,0,0,0,.85,3,5.74,5.74,0,0,0,3.25,1.28v1.88H1426.1v-1.88c2.27-.2,3.85-.72,4.76-1.55s1.9-2.67,3-5.53l36.78-98.36,37.74,97.75a24.29,24.29,0,0,0,3.06,6.11,5.19,5.19,0,0,0,3.81,1.58v1.88h-25.87v-1.88a5.91,5.91,0,0,0,3.41-1.1,3.77,3.77,0,0,0,1-2.9,16.81,16.81,0,0,0-1.39-5.72Zm-5.43-13.94-11-29.29-11.23,29.29Z" transform="translate(-268.48 -139.2)"/><path class="cls-5" d="M1531.22,1364.46v-80.81q0-5.34-1.1-7.15c-.74-1.21-2.26-1.86-4.58-2v-1.88h27.26q10.48,0,16.47,1.73,14.45,4.29,23.54,18.23a56.65,56.65,0,0,1,9.15,31.55,58.74,58.74,0,0,1-5.3,24.55,51.52,51.52,0,0,1-10.1,14.69,38.91,38.91,0,0,1-14,9.3q-7.53,2.82-18.64,2.82l-12.24-.07h-16.16v-1.88c2.32-.1,3.84-.76,4.58-2S1531.22,1368,1531.22,1364.46Zm13.76-3h6.75q9.35,0,13.88-1.66,11.87-4.44,18.05-17.24a42.17,42.17,0,0,0,4.1-18.38,41.63,41.63,0,0,0-5.49-21.09q-9.52-16.49-28.46-16.49H1545Z" transform="translate(-268.48 -139.2)"/><path class="cls-5" d="M304.61,1514q.54,12.75,5.27,22.12,5.26,10.34,13.66,15a24.57,24.57,0,0,0,12.1,3.12,25.52,25.52,0,0,0,14.95-4.52,22.7,22.7,0,0,0,8.89-12.14l1.32.56-4.31,24.6a36.73,36.73,0,0,1-21.81,6.81q-16.29,0-28-12.82A56.93,56.93,0,0,1,294.48,1535a73,73,0,0,1-3.23-21.72,71.34,71.34,0,0,1,6-29.16q5.92-13.38,15.55-20.63a34.55,34.55,0,0,1,21.29-7.25,31.17,31.17,0,0,1,7,.64,55.12,55.12,0,0,1,8,2.88,5,5,0,0,0,2,.49c1.08,0,1.73-.73,2-2.17h1.38l4.91,29.65-1.37.8q-3.3-8.34-8.93-12.66a20.89,20.89,0,0,0-13.12-4.33,25.6,25.6,0,0,0-18,7.17q-7.73,7.17-11.38,20.15h21.74c3.28,0,5.39-.29,6.35-.88s1.84-2.13,2.64-4.65h1.56l-4.74,27.41h-1.55c0-.65.06-1.13.06-1.45,0-2-.37-3.41-1.11-4.16s-2.13-1.13-4.17-1.13Z" transform="translate(-268.48 -139.2)"/><path class="cls-5" d="M418,1571l-27.32-90.45v75.39q0,5.68,1.05,7.61c.7,1.28,2.15,2,4.35,2.08v2H373.37v-2c2.2-.1,3.64-.8,4.34-2.08s1.05-3.82,1.05-7.61v-86q0-5.68-1.05-7.61c-.7-1.28-2.14-2-4.34-2.08v-2h24.86L418.78,1527l22.29-68.74h23.84v2c-2.2.1-3.64.8-4.34,2.08s-1.05,3.82-1.05,7.61v86q0,5.68,1.05,7.61c.7,1.28,2.14,2,4.34,2.08v2H441.07v-2c2.19-.1,3.64-.8,4.34-2.08s1-3.82,1-7.61V1482.2Z" transform="translate(-268.48 -139.2)"/><path class="cls-5" d="M498.18,1469.94v86q0,5.68,1.05,7.61c.7,1.28,2.15,2,4.35,2.08v2H479.73v-2c2.2-.1,3.65-.8,4.34-2.08s1.05-3.82,1.05-7.61v-86q0-5.68-1.05-7.61c-.69-1.28-2.14-2-4.34-2.08v-2h23.85v2c-2.2.1-3.65.8-4.35,2.08S498.18,1466.15,498.18,1469.94Z" transform="translate(-268.48 -139.2)"/><path class="cls-5" d="M536.82,1552.14H560q6.1,0,7.64-1c1-.69,2.16-2.78,3.44-6.25l1.32.56-3.6,22.19H518.37v-2c2.2-.1,3.65-.8,4.34-2.08s1-3.82,1-7.61v-86q0-5.68-1-7.61c-.69-1.28-2.14-2-4.34-2.08v-2h23.84v2c-2.19.1-3.64.8-4.34,2.08s-1,3.82-1,7.61Z" transform="translate(-268.48 -139.2)"/><path class="cls-5" d="M600.58,1469.94v86q0,5.68,1,7.61c.69,1.28,2.14,2,4.34,2.08v2H582.13v-2c2.19-.1,3.64-.8,4.34-2.08s1-3.82,1-7.61v-86q0-5.68-1-7.61c-.7-1.28-2.15-2-4.34-2.08v-2H606v2c-2.2.1-3.65.8-4.34,2.08S600.58,1466.15,600.58,1469.94Z" transform="translate(-268.48 -139.2)"/><path class="cls-5" d="M674.32,1540H643l-4.67,13.94a23.43,23.43,0,0,0-1.5,7.14,5,5,0,0,0,.81,3.2,5.18,5.18,0,0,0,3.09,1.36v2H616.69v-2q3.22-.31,4.52-1.64c.86-.88,1.8-2.84,2.84-5.89L659,1453.44l35.83,104a26.59,26.59,0,0,0,2.9,6.49,4.69,4.69,0,0,0,3.63,1.68v2H676.77v-2a5.29,5.29,0,0,0,3.24-1.16,4.31,4.31,0,0,0,.9-3.08,19.48,19.48,0,0,0-1.32-6.09Zm-5.15-14.82L658.68,1494,648,1525.14Z" transform="translate(-268.48 -139.2)"/><path class="cls-5" d="M772.24,1572.25l-42.84-82v65.7q0,5.68,1.05,7.61c.7,1.28,2.15,2,4.34,2.08v2h-22.7v-2c2.19-.1,3.64-.8,4.34-2.08s1.05-3.82,1.05-7.61v-86q0-5.68-1.05-7.61c-.7-1.28-2.15-2-4.34-2.08v-2H728.8l31.51,60.33v-48.63q0-5.68-1-7.61c-.7-1.28-2.15-2-4.35-2.08v-2h22.71v2c-2.2.1-3.65.8-4.35,2.08s-1,3.82-1,7.61Z" transform="translate(-268.48 -139.2)"/><path class="cls-5" d="M833.34,1456.32a32.22,32.22,0,0,1,19.11,6.41q12,8.58,18.09,24.44a72.89,72.89,0,0,1,4.67,26.59,68.39,68.39,0,0,1-4.61,24.68q-6.3,16.59-18.57,25a32.83,32.83,0,0,1-18.93,6.09,34,34,0,0,1-20.73-7.21q-11.75-8.73-17.56-24.6a72.27,72.27,0,0,1-4.25-24.84q0-23.39,12.58-40.22Q815.25,1456.49,833.34,1456.32Zm-.12,16q-13.85,0-22.35,14.42a50.47,50.47,0,0,0-6.83,26,51.67,51.67,0,0,0,5.69,24.12q8.57,16.59,22.89,16.58,9.35,0,17-7.37A39,39,0,0,0,859.1,1530a52.7,52.7,0,0,0,2.63-16.35q0-18.82-9.88-31.32Q844.35,1472.74,833.22,1472.34Z" transform="translate(-268.48 -139.2)"/><path class="cls-5" d="M1427.11,1559V1474.7q0-5.57-1-7.46t-4.25-2v-2h25.36q9.75,0,15.32,1.8,13.46,4.49,21.9,19a64.35,64.35,0,0,1,8.51,32.9,67.47,67.47,0,0,1-4.93,25.6,54.2,54.2,0,0,1-9.39,15.31,36.35,36.35,0,0,1-13,9.7q-7,2.94-17.34,2.94l-11.39-.08h-15v-2q3.23-.17,4.25-2C1426.77,1565.15,1427.11,1562.67,1427.11,1559Zm12.8-3.14h6.28q8.68,0,12.92-1.73,11-4.63,16.79-18a48.4,48.4,0,0,0,3.81-19.16,47.55,47.55,0,0,0-5.1-22q-8.86-17.19-26.48-17.2h-8.22Z" transform="translate(-268.48 -139.2)"/><path class="cls-5" d="M1521.14,1517.88q.52,12.49,5.17,21.68,5.16,10.13,13.38,14.68a24.07,24.07,0,0,0,11.86,3.06,25,25,0,0,0,14.65-4.44,22.28,22.28,0,0,0,8.72-11.89l1.29.55-4.23,24.1a36,36,0,0,1-21.37,6.68q-16,0-27.48-12.57a55.79,55.79,0,0,1-11.91-21.27,71.15,71.15,0,0,1-3.17-21.28,69.74,69.74,0,0,1,5.87-28.58q5.8-13.11,15.23-20.22a33.84,33.84,0,0,1,20.87-7.11,30.6,30.6,0,0,1,6.84.63,53.07,53.07,0,0,1,7.84,2.83,4.89,4.89,0,0,0,1.94.47c1.06,0,1.7-.71,1.94-2.12h1.35l4.81,29.05-1.35.79q-3.23-8.18-8.75-12.41a20.47,20.47,0,0,0-12.85-4.24,25.08,25.08,0,0,0-17.62,7q-7.58,7-11.15,19.74h21.31c3.21,0,5.28-.28,6.22-.86s1.8-2.09,2.59-4.55h1.52l-4.64,26.85h-1.52q.06-.95.06-1.41c0-2-.37-3.35-1.09-4.09s-2.08-1.1-4.08-1.1Z" transform="translate(-268.48 -139.2)"/><path class="cls-5" d="M1609,1555.26h22.67q6,0,7.48-1c1-.68,2.12-2.72,3.38-6.13l1.29.55-3.52,21.75h-49.38v-2q3.22-.17,4.26-2c.68-1.26,1-3.74,1-7.46V1474.7q0-5.57-1-7.46t-4.26-2v-2h23.37v2c-2.16.11-3.57.79-4.26,2s-1,3.75-1,7.46Z" transform="translate(-268.48 -139.2)"/><path class="cls-5" d="M1720.54,1517.88a52.61,52.61,0,0,0,5.16,21.68q5.17,10.13,13.39,14.68a24.07,24.07,0,0,0,11.86,3.06,25,25,0,0,0,14.65-4.44,22.28,22.28,0,0,0,8.72-11.89l1.29.55-4.23,24.1a36,36,0,0,1-21.37,6.68q-16,0-27.48-12.57a55.79,55.79,0,0,1-11.91-21.27,71.15,71.15,0,0,1-3.17-21.28,69.74,69.74,0,0,1,5.87-28.58q5.81-13.11,15.23-20.22a33.84,33.84,0,0,1,20.87-7.11,30.6,30.6,0,0,1,6.84.63,53.07,53.07,0,0,1,7.84,2.83,4.85,4.85,0,0,0,1.94.47c1,0,1.7-.71,1.94-2.12h1.35l4.81,29.05-1.35.79q-3.22-8.18-8.75-12.41a20.48,20.48,0,0,0-12.86-4.24,25.07,25.07,0,0,0-17.61,7q-7.58,7-11.15,19.74h21.31c3.21,0,5.28-.28,6.22-.86s1.8-2.09,2.58-4.55h1.53l-4.64,26.85h-1.52c0-.63.06-1.1.06-1.41,0-2-.37-3.35-1.09-4.09s-2.08-1.1-4.08-1.1Z" transform="translate(-268.48 -139.2)"/><path class="cls-5" d="M1836.08,1486.09l-1.41.47a21.76,21.76,0,0,0-5.11-6.36q-5.76-4.71-11.92-4.71a11.61,11.61,0,0,0-8.75,3.61,12.73,12.73,0,0,0-3.46,9.18,13.31,13.31,0,0,0,2.38,8q2.37,3.3,10.18,9.35,11.16,8.63,15,14,6.16,8.64,6.16,21.12,0,13-6.34,22.07-6.69,9.5-16.91,9.5a30.94,30.94,0,0,1-11.8-2.44,17.32,17.32,0,0,0-4.7-1.41c-1.41,0-2.5.84-3.28,2.51h-1.35l-3.82-26.3h1.47a21.53,21.53,0,0,0,6.87,8.48,22.34,22.34,0,0,0,13.5,4.79,11.56,11.56,0,0,0,10-5.11,18.3,18.3,0,0,0,3.11-10.83,18.77,18.77,0,0,0-5.05-13.43,124.06,124.06,0,0,0-12-10.28q-9.87-7.69-13.16-14.45a32.59,32.59,0,0,1-3.34-14.68q0-13.74,8.16-21.91a19.33,19.33,0,0,1,14.09-5.89q5.28,0,12.15,3.22a5.21,5.21,0,0,0,2.17.63c1,0,1.86-.78,2.65-2.36H1833Z" transform="translate(-268.48 -139.2)"/><path class="cls-5" d="M1886.53,1478.23V1559c0,3.72.34,6.2,1,7.46s2.1,1.93,4.25,2v2h-23.36v-2q3.22-.17,4.25-2c.69-1.26,1-3.74,1-7.46v-80.72h-14.38a9.19,9.19,0,0,0-5,1.06,7.82,7.82,0,0,0-2.56,4.21l-1.41-.71,3.7-21.67h1.41q.71,2.12,4.35,2.12h40.8a8.33,8.33,0,0,0,3.08-.36,2.83,2.83,0,0,0,1.21-1.76h1.41l3.46,22.38-1.35.7q-1.53-4.15-2.76-5.06c-.82-.6-2.58-.91-5.28-.91Z" transform="translate(-268.48 -139.2)"/><path class="cls-5" d="M1966.37,1543.32h-30.65l-4.58,13.67a23.18,23.18,0,0,0-1.46,7,4.86,4.86,0,0,0,.79,3.14,5,5,0,0,0,3,1.34v2h-23.6v-2q3.16-.32,4.43-1.61c.85-.86,1.77-2.79,2.79-5.77l34.23-102.54,35.11,101.91a25.77,25.77,0,0,0,2.85,6.36,4.61,4.61,0,0,0,3.55,1.65v2h-24.07v-2a5.2,5.2,0,0,0,3.17-1.14,4.23,4.23,0,0,0,.88-3,19.14,19.14,0,0,0-1.29-6Zm-5-14.52-10.27-30.54-10.45,30.54Z" transform="translate(-268.48 -139.2)"/><path class="cls-5" d="M2011.08,1559V1474.7c0-3.71-.35-6.2-1-7.46s-2.11-1.93-4.26-2v-2h25.36q9.75,0,15.33,1.8,13.44,4.49,21.9,19a64.45,64.45,0,0,1,8.51,32.9,67.47,67.47,0,0,1-4.93,25.6,54.22,54.22,0,0,1-9.4,15.31,36.32,36.32,0,0,1-13,9.7q-7,2.94-17.35,2.94l-11.39-.08h-15v-2q3.23-.17,4.26-2C2010.73,1565.15,2011.08,1562.67,2011.08,1559Zm12.79-3.14h6.29q8.68,0,12.91-1.73,11-4.63,16.79-18a48.23,48.23,0,0,0,3.82-19.16,47.43,47.43,0,0,0-5.11-22q-8.87-17.19-26.48-17.2h-8.22Z" transform="translate(-268.48 -139.2)"/><path class="cls-5" d="M2133.93,1461.35a31.58,31.58,0,0,1,18.73,6.28q11.74,8.41,17.73,23.95a71.43,71.43,0,0,1,4.58,26.07,67,67,0,0,1-4.52,24.18q-6.16,16.26-18.2,24.5a32.2,32.2,0,0,1-18.56,6,33.28,33.28,0,0,1-20.31-7.07q-11.51-8.55-17.2-24.1a70.69,70.69,0,0,1-4.17-24.34q0-22.93,12.33-39.42Q2116.19,1461.52,2133.93,1461.35Zm-.12,15.71q-13.56,0-21.9,14.13a49.44,49.44,0,0,0-6.69,25.52,50.54,50.54,0,0,0,5.58,23.63q8.38,16.26,22.42,16.25,9.17,0,16.62-7.22a38.15,38.15,0,0,0,9.33-15.86,51.24,51.24,0,0,0,2.59-16q0-18.45-9.69-30.7Q2144.73,1477.45,2133.81,1477.06Z" transform="translate(-268.48 -139.2)"/><path class="cls-5" d="M2233.87,1559V1474.7q0-5.57-1-7.46t-4.26-2v-2H2254q9.75,0,15.33,1.8,13.44,4.49,21.89,19a64.36,64.36,0,0,1,8.52,32.9,67.67,67.67,0,0,1-4.93,25.6,54.22,54.22,0,0,1-9.4,15.31,36.41,36.41,0,0,1-13,9.7q-7,2.94-17.35,2.94l-11.39-.08h-15v-2q3.22-.17,4.26-2C2233.53,1565.15,2233.87,1562.67,2233.87,1559Zm12.8-3.14H2253q8.7,0,12.92-1.73,11-4.63,16.79-18a48.23,48.23,0,0,0,3.82-19.16,47.56,47.56,0,0,0-5.11-22q-8.86-17.19-26.48-17.2h-8.22Z" transform="translate(-268.48 -139.2)"/><path class="cls-5" d="M2327.9,1517.88q.53,12.49,5.17,21.68,5.16,10.13,13.38,14.68a24.09,24.09,0,0,0,11.86,3.06,25,25,0,0,0,14.65-4.44,22.23,22.23,0,0,0,8.72-11.89l1.29.55-4.23,24.1a36,36,0,0,1-21.37,6.68q-16,0-27.47-12.57a55.67,55.67,0,0,1-11.92-21.27,71.47,71.47,0,0,1-3.17-21.28,69.74,69.74,0,0,1,5.87-28.58q5.81-13.11,15.24-20.22a33.82,33.82,0,0,1,20.87-7.11,30.73,30.73,0,0,1,6.84.63,53,53,0,0,1,7.83,2.83,4.89,4.89,0,0,0,1.94.47c1.06,0,1.7-.71,1.94-2.12h1.35l4.81,29.05-1.35.79q-3.22-8.18-8.74-12.41a20.5,20.5,0,0,0-12.86-4.24,25.08,25.08,0,0,0-17.62,7q-7.56,7-11.15,19.74h21.31c3.21,0,5.29-.28,6.22-.86s1.8-2.09,2.59-4.55h1.52l-4.63,26.85h-1.53q.06-.95.06-1.41c0-2-.36-3.35-1.09-4.09s-2.08-1.1-4.08-1.1Z" transform="translate(-268.48 -139.2)"/><path class="cls-5" d="M2490.93,1573.71l-26.77-88.64V1559c0,3.72.34,6.2,1,7.46s2.1,1.93,4.25,2v2h-22.25v-2c2.16-.11,3.57-.79,4.26-2s1-3.74,1-7.46V1474.7c0-3.71-.35-6.2-1-7.46s-2.1-1.93-4.26-2v-2h24.37l20.14,67.36,21.84-67.36h23.36v2q-3.22.16-4.25,2t-1,7.46V1559c0,3.72.34,6.2,1,7.46s2.1,1.93,4.25,2v2h-23.36v-2q3.23-.17,4.25-2c.69-1.26,1-3.74,1-7.46v-72.24Z" transform="translate(-268.48 -139.2)"/><path class="cls-5" d="M2598.3,1461.35a31.55,31.55,0,0,1,18.73,6.28q11.74,8.41,17.73,23.95a71.22,71.22,0,0,1,4.58,26.07,66.79,66.79,0,0,1-4.52,24.18q-6.17,16.26-18.2,24.5a32.15,32.15,0,0,1-18.55,6,33.28,33.28,0,0,1-20.31-7.07q-11.52-8.55-17.21-24.1a70.69,70.69,0,0,1-4.16-24.34q0-22.93,12.32-39.42Q2580.57,1461.52,2598.3,1461.35Zm-.11,15.71q-13.56,0-21.9,14.13a49.44,49.44,0,0,0-6.69,25.52,50.54,50.54,0,0,0,5.57,23.63q8.4,16.26,22.43,16.25,9.17,0,16.61-7.22a38.06,38.06,0,0,0,9.34-15.86,51.52,51.52,0,0,0,2.58-16q0-18.45-9.68-30.7Q2609.1,1477.45,2598.19,1477.06Z" transform="translate(-268.48 -139.2)"/><path class="cls-5" d="M2697.55,1519.77l18,41.22c1.4,3.25,2.45,5.23,3.14,6a6.46,6.46,0,0,0,3.84,1.49v2H2699v-2q3.11,0,3.11-3.14a14.81,14.81,0,0,0-1.53-4.71l-12.44-28.27-11.33,14.76V1559c0,3.72.34,6.2,1,7.46s2.11,1.93,4.26,2v2h-23.37v-2c2.16-.11,3.57-.79,4.26-2s1-3.74,1-7.46V1474.7c0-3.71-.35-6.2-1-7.46s-2.1-1.93-4.26-2v-2h29.06q7.29,0,10.9,1.29a17.72,17.72,0,0,1,7,5q6.75,7.53,6.75,19.31a30.81,30.81,0,0,1-4.28,16.18q-2.11,3.62-8.93,12.64Zm-20.72,4.79,18.37-24.34q4.05-5.27,4.05-10.6a13.14,13.14,0,0,0-2.64-8.48,6.43,6.43,0,0,0-3-2.32,16.22,16.22,0,0,0-5-.59h-11.8Z" transform="translate(-268.48 -139.2)"/><path class="cls-5" d="M2747,1517.88a52.77,52.77,0,0,0,5.17,21.68q5.16,10.13,13.39,14.68a24.07,24.07,0,0,0,11.86,3.06,24.94,24.94,0,0,0,14.64-4.44,22.17,22.17,0,0,0,8.72-11.89l1.29.55-4.22,24.1a36,36,0,0,1-21.37,6.68q-16,0-27.48-12.57a55.8,55.8,0,0,1-11.92-21.27,71.47,71.47,0,0,1-3.17-21.28,69.9,69.9,0,0,1,5.87-28.58q5.82-13.11,15.24-20.22a33.84,33.84,0,0,1,20.87-7.11,30.6,30.6,0,0,1,6.84.63,53.49,53.49,0,0,1,7.84,2.83,4.85,4.85,0,0,0,1.94.47c1.05,0,1.7-.71,1.93-2.12h1.35l4.82,29.05-1.35.79q-3.24-8.18-8.75-12.41a20.5,20.5,0,0,0-12.86-4.24,25.07,25.07,0,0,0-17.61,7q-7.58,7-11.16,19.74h21.31c3.21,0,5.29-.28,6.23-.86s1.8-2.09,2.58-4.55h1.53l-4.64,26.85h-1.53q.06-.95.06-1.41c0-2-.36-3.35-1.08-4.09s-2.09-1.1-4.08-1.1Z" transform="translate(-268.48 -139.2)"/><path class="cls-5" d="M2839.07,1555.26h22.66c4,0,6.49-.34,7.48-1s2.13-2.72,3.38-6.13l1.29.55-3.52,21.75H2821v-2q3.24-.17,4.26-2c.69-1.26,1-3.74,1-7.46V1474.7q0-5.57-1-7.46t-4.26-2v-2h23.37v2q-3.22.16-4.26,2t-1,7.46Z" transform="translate(-268.48 -139.2)"/><path class="cls-5" d="M2929.56,1461.35a31.58,31.58,0,0,1,18.73,6.28Q2960,1476,2966,1491.58a71.43,71.43,0,0,1,4.58,26.07,67,67,0,0,1-4.52,24.18q-6.16,16.26-18.2,24.5a32.2,32.2,0,0,1-18.55,6,33.29,33.29,0,0,1-20.32-7.07q-11.51-8.55-17.2-24.1a70.69,70.69,0,0,1-4.17-24.34q0-22.93,12.33-39.42Q2911.84,1461.52,2929.56,1461.35Zm-.12,15.71q-13.56,0-21.9,14.13a49.44,49.44,0,0,0-6.69,25.52,50.54,50.54,0,0,0,5.58,23.63q8.4,16.26,22.43,16.25,9.15,0,16.61-7.22a38.27,38.27,0,0,0,9.34-15.86,51.52,51.52,0,0,0,2.58-16q0-18.45-9.69-30.7Q2940.37,1477.45,2929.44,1477.06Z" transform="translate(-268.48 -139.2)"/><path class="cls-5" d="M3035,1486.09l-1.41.47a21.74,21.74,0,0,0-5.1-6.36q-5.76-4.71-11.92-4.71a11.59,11.59,0,0,0-8.75,3.61,12.73,12.73,0,0,0-3.46,9.18,13.37,13.37,0,0,0,2.37,8q2.39,3.3,10.19,9.35,11.16,8.63,15,14,6.17,8.64,6.16,21.12,0,13-6.34,22.07-6.69,9.5-16.9,9.5a31,31,0,0,1-11.81-2.44,17.29,17.29,0,0,0-4.69-1.41c-1.41,0-2.51.84-3.29,2.51h-1.35l-3.82-26.3h1.47a21.53,21.53,0,0,0,6.87,8.48,22.39,22.39,0,0,0,13.5,4.79,11.54,11.54,0,0,0,10-5.11,18.23,18.23,0,0,0,3.11-10.83,18.8,18.8,0,0,0-5-13.43,124.49,124.49,0,0,0-12-10.28q-9.87-7.69-13.15-14.45a32.6,32.6,0,0,1-3.35-14.68q0-13.74,8.16-21.91a19.35,19.35,0,0,1,14.09-5.89q5.29,0,12.16,3.22a5.17,5.17,0,0,0,2.17.63c1,0,1.86-.78,2.64-2.36H3032Z" transform="translate(-268.48 -139.2)"/></svg>